<svg width="510" height="270" viewBox="0 0 510 270" fill="none" xmlns="http://www.w3.org/2000/svg">
<path d="M0 230C0 174.772 44.7715 130 100 130H460C487.614 130 510 152.386 510 180V240C510 256.569 496.569 270 480 270H40C17.9086 270 0 252.091 0 230V230Z" fill="#E0E0E0"/>
<path d="M0 231H510V260C510 265.523 505.523 270 500 270H39C17.4609 270 0 252.539 0 231V231Z" fill="#3D9D5F"/>
<path d="M375.287 162.174C394.466 162.174 410.014 146.637 410.014 127.472C410.014 108.306 394.466 92.7691 375.287 92.7691C356.108 92.7691 340.561 108.306 340.561 127.472C340.561 146.637 356.108 162.174 375.287 162.174Z" fill="#ACD980"/>
<path d="M338.356 152.693C357.535 152.693 373.083 137.156 373.083 117.991C373.083 98.825 357.535 83.2882 338.356 83.2882C319.177 83.2882 303.629 98.825 303.629 117.991C303.629 137.156 319.177 152.693 338.356 152.693Z" fill="#ACD980"/>
<path d="M297.702 153.033C316.881 153.033 332.428 137.496 332.428 118.33C332.428 99.1645 316.881 83.6277 297.702 83.6277C278.523 83.6277 262.975 99.1645 262.975 118.33C262.975 137.496 278.523 153.033 297.702 153.033Z" fill="#ACD980"/>
<path d="M284.488 162.174C303.667 162.174 319.214 146.637 319.214 127.472C319.214 108.306 303.667 92.7691 284.488 92.7691C265.309 92.7691 249.761 108.306 249.761 127.472C249.761 146.637 265.309 162.174 284.488 162.174Z" fill="#ACD980"/>
<path d="M262.126 165.222C281.305 165.222 296.853 149.685 296.853 130.52C296.853 111.354 281.305 95.8174 262.126 95.8174C242.947 95.8174 227.4 111.354 227.4 130.52C227.4 149.685 242.947 165.222 262.126 165.222Z" fill="#ACD980"/>
<path d="M252.978 137.798C272.157 137.798 287.705 122.261 287.705 103.096C287.705 83.9299 272.157 68.3931 252.978 68.3931C233.799 68.3931 218.252 83.9299 218.252 103.096C218.252 122.261 233.799 137.798 252.978 137.798Z" fill="#ACD980"/>
<path d="M263.142 105.971C282.321 105.971 297.868 90.4342 297.868 71.2685C297.868 52.1029 282.321 36.5661 263.142 36.5661C243.963 36.5661 228.415 52.1029 228.415 71.2685C228.415 90.4342 243.963 105.971 263.142 105.971Z" fill="#ACD980"/>
<path d="M282.453 105.971C301.632 105.971 317.18 90.4342 317.18 71.2685C317.18 52.1029 301.632 36.5661 282.453 36.5661C263.274 36.5661 247.727 52.1029 247.727 71.2685C247.727 90.4342 263.274 105.971 282.453 105.971Z" fill="#ACD980"/>
<path d="M293.636 91.7513C312.815 91.7513 328.362 76.2145 328.362 57.0489C328.362 37.8832 312.815 22.3464 293.636 22.3464C274.457 22.3464 258.909 37.8832 258.909 57.0489C258.909 76.2145 274.457 91.7513 293.636 91.7513Z" fill="#ACD980"/>
<path d="M322.095 107.325C341.274 107.325 356.822 91.7886 356.822 72.6229C356.822 53.4573 341.274 37.9205 322.095 37.9205C302.916 37.9205 287.368 53.4573 287.368 72.6229C287.368 91.7886 302.916 107.325 322.095 107.325Z" fill="#ACD980"/>
<path d="M388.501 137.798C407.68 137.798 423.228 122.261 423.228 103.096C423.228 83.9299 407.68 68.3931 388.501 68.3931C369.322 68.3931 353.775 83.9299 353.775 103.096C353.775 122.261 369.322 137.798 388.501 137.798Z" fill="#ACD980"/>
<path d="M368.51 120.53C387.689 120.53 403.237 104.993 403.237 85.8277C403.237 66.6621 387.689 51.1253 368.51 51.1253C349.331 51.1253 333.784 66.6621 333.784 85.8277C333.784 104.993 349.331 120.53 368.51 120.53Z" fill="#ACD980"/>
<path d="M355.636 103.262C374.815 103.262 390.363 87.7253 390.363 68.5597C390.363 49.394 374.815 33.8572 355.636 33.8572C336.457 33.8572 320.91 49.394 320.91 68.5597C320.91 87.7253 336.457 103.262 355.636 103.262Z" fill="#ACD980"/>
<path d="M331.243 77.192C350.422 77.192 365.969 61.6552 365.969 42.4896C365.969 23.324 350.422 7.78717 331.243 7.78717C312.064 7.78717 296.516 23.324 296.516 42.4896C296.516 61.6552 312.064 77.192 331.243 77.192Z" fill="#ACD980"/>
<path d="M376.643 105.971C395.821 105.971 411.369 90.4342 411.369 71.2685C411.369 52.1029 395.821 36.5661 376.643 36.5661C357.464 36.5661 341.916 52.1029 341.916 71.2685C341.916 90.4342 357.464 105.971 376.643 105.971Z" fill="#ACD980"/>
<g opacity="0.1">
<path d="M375.287 162.174C394.466 162.174 410.014 146.638 410.014 127.472C410.014 108.306 394.466 92.7696 375.287 92.7696C356.108 92.7696 340.561 108.306 340.561 127.472C340.561 146.638 356.108 162.174 375.287 162.174Z" fill="black"/>
<path d="M338.356 152.694C357.535 152.694 373.083 137.157 373.083 117.991C373.083 98.8254 357.535 83.2886 338.356 83.2886C319.177 83.2886 303.63 98.8254 303.63 117.991C303.63 137.157 319.177 152.694 338.356 152.694Z" fill="black"/>
<path d="M297.702 153.033C316.881 153.033 332.428 137.496 332.428 118.331C332.428 99.1649 316.881 83.6281 297.702 83.6281C278.523 83.6281 262.975 99.1649 262.975 118.331C262.975 137.496 278.523 153.033 297.702 153.033Z" fill="black"/>
<path d="M284.488 162.174C303.667 162.174 319.214 146.638 319.214 127.472C319.214 108.306 303.667 92.7696 284.488 92.7696C265.309 92.7696 249.761 108.306 249.761 127.472C249.761 146.638 265.309 162.174 284.488 162.174Z" fill="black"/>
<path d="M262.126 165.223C281.305 165.223 296.853 149.686 296.853 130.52C296.853 111.355 281.305 95.8179 262.126 95.8179C242.947 95.8179 227.4 111.355 227.4 130.52C227.4 149.686 242.947 165.223 262.126 165.223Z" fill="black"/>
<path d="M252.978 137.798C272.157 137.798 287.705 122.261 287.705 103.096C287.705 83.9302 272.157 68.3934 252.978 68.3934C233.799 68.3934 218.252 83.9302 218.252 103.096C218.252 122.261 233.799 137.798 252.978 137.798Z" fill="black"/>
<path d="M263.142 105.971C282.321 105.971 297.868 90.4342 297.868 71.2685C297.868 52.1029 282.321 36.5661 263.142 36.5661C243.963 36.5661 228.415 52.1029 228.415 71.2685C228.415 90.4342 243.963 105.971 263.142 105.971Z" fill="black"/>
<path d="M282.453 105.971C301.632 105.971 317.18 90.4342 317.18 71.2685C317.18 52.1029 301.632 36.5661 282.453 36.5661C263.274 36.5661 247.727 52.1029 247.727 71.2685C247.727 90.4342 263.274 105.971 282.453 105.971Z" fill="black"/>
<path d="M293.636 91.7512C312.815 91.7512 328.362 76.2144 328.362 57.0488C328.362 37.8832 312.815 22.3464 293.636 22.3464C274.457 22.3464 258.909 37.8832 258.909 57.0488C258.909 76.2144 274.457 91.7512 293.636 91.7512Z" fill="black"/>
<path d="M322.095 107.325C341.274 107.325 356.822 91.7886 356.822 72.623C356.822 53.4573 341.274 37.9205 322.095 37.9205C302.916 37.9205 287.369 53.4573 287.369 72.623C287.369 91.7886 302.916 107.325 322.095 107.325Z" fill="black"/>
<path d="M388.501 137.798C407.68 137.798 423.228 122.261 423.228 103.096C423.228 83.9302 407.68 68.3934 388.501 68.3934C369.322 68.3934 353.775 83.9302 353.775 103.096C353.775 122.261 369.322 137.798 388.501 137.798Z" fill="black"/>
<path d="M368.51 120.53C387.689 120.53 403.237 104.993 403.237 85.8277C403.237 66.6621 387.689 51.1253 368.51 51.1253C349.331 51.1253 333.784 66.6621 333.784 85.8277C333.784 104.993 349.331 120.53 368.51 120.53Z" fill="black"/>
<path d="M355.636 103.262C374.815 103.262 390.363 87.7253 390.363 68.5597C390.363 49.3941 374.815 33.8573 355.636 33.8573C336.457 33.8573 320.91 49.3941 320.91 68.5597C320.91 87.7253 336.457 103.262 355.636 103.262Z" fill="black"/>
<path d="M331.243 77.192C350.422 77.192 365.97 61.6552 365.97 42.4896C365.97 23.324 350.422 7.78717 331.243 7.78717C312.064 7.78717 296.516 23.324 296.516 42.4896C296.516 61.6552 312.064 77.192 331.243 77.192Z" fill="black"/>
<path d="M376.643 105.971C395.822 105.971 411.369 90.4342 411.369 71.2685C411.369 52.1029 395.822 36.5661 376.643 36.5661C357.464 36.5661 341.916 52.1029 341.916 71.2685C341.916 90.4342 357.464 105.971 376.643 105.971Z" fill="black"/>
</g>
<path d="M358.136 188.285C358.136 188.285 379.367 170.453 368.864 145.062L358.36 141.131L346.964 176.193L358.136 188.285Z" fill="#CF9875"/>
<path opacity="0.1" d="M359.267 139.923L361.781 140.863L350.592 175.287L360.354 185.851C359.546 186.656 359.043 187.076 359.043 187.076L347.867 174.985L359.267 139.923Z" fill="black"/>
<path d="M398.349 184.544C398.349 184.544 391.443 191.445 395.343 201.687C399.242 211.928 388.661 228.955 388.661 228.955L389 228.901C403.183 226.399 410.231 210.19 402.344 198.146C399.395 193.676 396.987 188.421 398.349 184.544Z" fill="#ACD980"/>
<path d="M398.349 184.544C398.349 184.544 394.449 193.003 398.349 199.905C402.248 206.806 399.028 226.172 388.657 228.955" stroke="#535461" stroke-miterlimit="10"/>
<path d="M410.649 212.458C410.649 212.458 402.768 211.205 402.051 218.262C401.335 225.32 386.894 226.297 386.894 226.297L387.166 226.477C399.086 234.285 410.479 231.457 408.76 221.077C408.125 217.217 408.176 213.34 410.649 212.458Z" fill="#ACD980"/>
<path opacity="0.2" d="M410.649 212.458C410.649 212.458 402.768 211.205 402.051 218.262C401.335 225.32 386.894 226.297 386.894 226.297L387.166 226.477C399.086 234.285 410.479 231.457 408.76 221.077C408.125 217.217 408.176 213.34 410.649 212.458Z" fill="#F5F5F5"/>
<path d="M410.649 212.458C410.649 212.458 404.535 213.816 405.034 219.359C405.533 224.902 395.951 231.579 386.898 226.297" stroke="#535461" stroke-miterlimit="10"/>
<path d="M262.255 151.145L265.013 162.177C265.013 162.177 284.502 164.717 297.495 163.121C299.792 162.795 301.997 162 303.973 160.786C305.07 160.137 306.802 159.856 309.17 161.627C313.226 164.683 333.132 189.123 329.908 214.481C329.658 216.391 328.784 218.166 327.423 219.531C326.062 220.896 324.288 221.774 322.377 222.03C318.408 222.571 314.613 224.005 311.279 226.226L301.428 232.781L402.435 230.574L391.949 217.889C391.949 217.889 384.775 211.823 379.255 211.269C377.645 211.11 376.316 209.633 375.243 207.627C368.955 195.865 361.435 184.805 353.282 174.245C347.344 166.553 342.361 158.447 342.826 153.355C343.93 141.219 342.826 121.365 342.826 121.365L321.854 118.608C321.854 118.608 324.612 145.086 299.224 151.702C273.835 158.318 262.255 151.145 262.255 151.145Z" fill="#CF9875"/>
<g opacity="0.1">
<path d="M279.365 156.111C279.365 156.111 290.956 163.281 316.347 156.661C341.739 150.042 338.978 123.568 338.978 123.568L342.969 124.087C342.894 122.39 342.837 121.372 342.837 121.372L321.864 118.615C321.864 118.615 324.622 145.093 299.234 151.709C273.845 158.325 262.252 151.159 262.252 151.159L265.01 162.191C265.01 162.191 272.456 163.162 281.213 163.525L279.365 156.111Z" fill="black"/>
<path d="M328.39 231.189C331.723 228.968 335.518 227.533 339.487 226.993C341.394 226.74 343.165 225.866 344.525 224.507C345.886 223.148 346.761 221.379 347.015 219.474C350.255 194.117 330.339 169.632 326.294 166.59C321.878 163.281 319.67 167.14 319.67 167.14C318.107 167.55 316.518 167.853 314.914 168.047C322.068 177.551 332.303 195.783 329.908 214.508C329.654 216.413 328.779 218.182 327.418 219.541C326.058 220.9 324.287 221.774 322.38 222.027C318.411 222.567 314.616 224.002 311.283 226.222L301.432 232.777L326.827 232.224L328.39 231.189Z" fill="black"/>
</g>
<path d="M279.158 231.66C279.158 231.66 277.049 224.505 279.552 219.236C280.617 217.034 280.937 214.545 280.466 212.145C280.229 211.006 279.888 209.892 279.447 208.815" stroke="#535461" stroke-width="2" stroke-miterlimit="10"/>
<path d="M281.023 205.485C281.023 206.361 279.433 208.907 279.433 208.907C279.433 208.907 277.854 206.361 277.854 205.485C277.854 205.064 278.021 204.659 278.319 204.362C278.617 204.064 279.022 203.896 279.443 203.896C279.865 203.896 280.269 204.064 280.568 204.362C280.866 204.659 281.033 205.064 281.033 205.485H281.023Z" fill="#ACD980"/>
<path d="M283.652 210.343C283.177 211.079 280.459 212.352 280.459 212.352C280.459 212.352 280.51 209.355 280.986 208.618C281.096 208.436 281.242 208.278 281.414 208.154C281.587 208.03 281.783 207.941 281.99 207.893C282.197 207.846 282.412 207.841 282.622 207.878C282.831 207.915 283.031 207.993 283.21 208.109C283.388 208.225 283.542 208.375 283.661 208.551C283.781 208.727 283.863 208.925 283.905 209.134C283.946 209.343 283.945 209.557 283.901 209.766C283.858 209.974 283.773 210.171 283.652 210.346V210.343Z" fill="#ACD980"/>
<path d="M283.537 218.639C282.752 219.033 279.766 218.761 279.766 218.761C279.766 218.761 281.322 216.198 282.107 215.804C282.293 215.711 282.496 215.654 282.704 215.639C282.913 215.624 283.122 215.649 283.32 215.715C283.518 215.78 283.702 215.884 283.86 216.02C284.018 216.156 284.148 216.322 284.242 216.509C284.335 216.695 284.392 216.898 284.407 217.106C284.423 217.314 284.397 217.523 284.331 217.721C284.266 217.92 284.162 218.103 284.026 218.261C283.889 218.419 283.723 218.548 283.537 218.642V218.639Z" fill="#ACD980"/>
<path d="M282.035 224.909C281.329 225.431 278.339 225.666 278.339 225.666C278.339 225.666 279.44 222.875 280.147 222.356C280.486 222.126 280.902 222.036 281.306 222.105C281.711 222.174 282.073 222.397 282.317 222.726C282.561 223.056 282.668 223.467 282.616 223.874C282.563 224.281 282.355 224.652 282.035 224.909Z" fill="#ACD980"/>
<path d="M277.12 212.529C277.748 213.14 280.683 213.774 280.683 213.774C280.683 213.774 279.967 210.862 279.325 210.251C279.02 209.972 278.618 209.822 278.204 209.834C277.791 209.846 277.399 210.019 277.11 210.315C276.822 210.611 276.661 211.008 276.661 211.422C276.661 211.835 276.822 212.232 277.11 212.529H277.12Z" fill="#ACD980"/>
<path d="M275.455 219.868C276.24 220.261 279.226 219.99 279.226 219.99C279.226 219.99 277.67 217.427 276.886 217.033C276.509 216.844 276.073 216.811 275.672 216.944C275.272 217.076 274.94 217.361 274.751 217.738C274.561 218.114 274.529 218.55 274.661 218.95C274.793 219.35 275.079 219.682 275.455 219.871V219.868Z" fill="#ACD980"/>
<path d="M274.817 227.231C275.523 227.753 278.513 227.988 278.513 227.988C278.513 227.988 277.412 225.197 276.706 224.678C276.366 224.448 275.95 224.358 275.546 224.427C275.141 224.496 274.779 224.718 274.535 225.048C274.291 225.378 274.184 225.789 274.237 226.196C274.289 226.603 274.497 226.974 274.817 227.231Z" fill="#ACD980"/>
<path d="M274.569 230.961C274.569 230.961 278.424 230.191 279.45 229.162C280.476 228.134 285.103 226.338 285.619 227.621C286.135 228.904 292.559 233.27 288.187 234.04C283.815 234.811 277.908 235.058 276.638 234.553C275.367 234.047 274.569 230.961 274.569 230.961Z" fill="#A8A8A8"/>
<path opacity="0.2" d="M288.191 233.575C283.822 234.346 277.912 234.593 276.641 234.088C275.663 233.697 274.983 231.817 274.715 230.944L274.586 230.971C274.586 230.971 275.357 234.054 276.641 234.566C277.925 235.079 283.836 234.824 288.191 234.054C289.451 233.83 289.811 233.31 289.675 232.648C289.566 233.069 289.128 233.402 288.191 233.575Z" fill="black"/>
<path d="M338.488 228.117C338.488 228.117 350.184 225.778 353.306 222.662C356.428 219.546 370.46 214.091 372.019 217.988C373.579 221.884 393.08 235.13 379.832 237.469C366.584 239.808 348.642 240.585 344.742 239.027C340.843 237.469 338.488 228.117 338.488 228.117Z" fill="#A8A8A8"/>
<path opacity="0.2" d="M379.819 236.019C366.571 238.358 348.628 239.136 344.729 237.577C341.76 236.389 339.694 230.687 338.879 228.035L338.488 228.117C338.488 228.117 340.829 237.469 344.725 239.027C348.621 240.585 366.56 239.808 379.815 237.469C383.644 236.79 384.737 235.208 384.323 233.205C384 234.512 382.665 235.52 379.819 236.019Z" fill="black"/>
<path d="M417.65 161.699C417.607 163.094 417.17 164.448 416.39 165.606C415.604 164.452 415.16 163.1 415.109 161.706C415.109 159.55 415.666 157.802 416.369 157.799C417.072 157.795 417.643 159.543 417.65 161.699Z" fill="#ACD980"/>
<path d="M321.759 159.805C321.712 161.2 321.271 162.553 320.488 163.708C319.705 162.553 319.265 161.2 319.218 159.805C319.218 157.649 319.785 155.901 320.488 155.901C321.191 155.901 321.759 157.649 321.759 159.805Z" fill="#ACD980"/>
<path d="M426.268 198.272C427.051 199.428 427.491 200.781 427.538 202.176C426.225 201.701 425.072 200.866 424.213 199.765C422.942 198.021 422.375 196.273 422.942 195.862C423.51 195.451 425.001 196.53 426.268 198.272Z" fill="#ACD980"/>
<path d="M385.688 177.833C385.641 179.228 385.201 180.581 384.418 181.737C383.635 180.581 383.195 179.228 383.148 177.833C383.148 175.678 383.715 173.929 384.418 173.929C385.121 173.929 385.688 175.684 385.688 177.833Z" fill="#ACD980"/>
<path d="M361.951 164.866C361.904 166.261 361.464 167.614 360.68 168.77C359.897 167.614 359.457 166.261 359.41 164.866C359.41 162.71 359.977 160.962 360.68 160.962C361.384 160.962 361.951 162.71 361.951 164.866Z" fill="#ACD980"/>
<path d="M347.225 172.772C347.878 174.006 348.169 175.399 348.064 176.791C346.805 176.179 345.745 175.224 345.007 174.035C343.934 172.164 343.56 170.365 344.168 170.015C344.776 169.666 346.155 170.901 347.225 172.772Z" fill="#ACD980"/>
<path d="M336.223 208.632C335.172 209.552 333.883 210.157 332.503 210.377C332.811 209.016 333.498 207.77 334.484 206.782C336.056 205.309 337.724 204.528 338.203 205.037C338.682 205.546 337.796 207.159 336.223 208.632Z" fill="#ACD980"/>
<path opacity="0.1" d="M336.223 208.632C335.172 209.552 333.883 210.157 332.503 210.377C332.811 209.016 333.498 207.77 334.484 206.782C336.056 205.309 337.724 204.528 338.203 205.037C338.682 205.546 337.796 207.159 336.223 208.632Z" fill="black"/>
<path d="M359.325 206.419C358.275 207.339 356.985 207.944 355.605 208.164C355.914 206.803 356.6 205.557 357.586 204.569C359.159 203.096 360.827 202.315 361.305 202.824C361.784 203.333 360.898 204.942 359.325 206.419Z" fill="#ACD980"/>
<path opacity="0.1" d="M359.325 206.419C358.275 207.339 356.985 207.944 355.605 208.164C355.914 206.803 356.6 205.557 357.586 204.569C359.159 203.096 360.827 202.315 361.305 202.824C361.784 203.333 360.898 204.942 359.325 206.419Z" fill="black"/>
<path d="M363.755 229.821C362.704 230.741 361.415 231.346 360.035 231.566C360.342 230.201 361.03 228.951 362.019 227.961C363.592 226.488 365.259 225.707 365.738 226.216C366.217 226.725 365.331 228.344 363.755 229.821Z" fill="#ACD980"/>
<path opacity="0.1" d="M363.755 229.821C362.704 230.741 361.415 231.346 360.035 231.566C360.342 230.201 361.03 228.951 362.019 227.961C363.592 226.488 365.259 225.707 365.738 226.216C366.217 226.725 365.331 228.344 363.755 229.821Z" fill="black"/>
<path d="M86.7269 207.409C91.9343 215.091 90.2732 242.594 90.2732 242.594C90.2732 242.594 64.1001 233.934 58.8926 226.256C56.3921 222.567 55.4605 218.036 56.3027 213.661C57.1449 209.286 59.6918 205.424 63.3833 202.925C67.0748 200.426 71.6085 199.495 75.9869 200.337C80.3653 201.179 84.2298 203.724 86.7303 207.413L86.7269 207.409Z" fill="#ACD980"/>
<path opacity="0.1" d="M86.7269 207.409C91.9343 215.091 90.2732 242.594 90.2732 242.594C90.2732 242.594 64.1001 233.934 58.8926 226.256C56.3921 222.567 55.4605 218.036 56.3027 213.661C57.1449 209.286 59.6918 205.424 63.3833 202.925C67.0748 200.426 71.6085 199.495 75.9869 200.337C80.3653 201.179 84.2298 203.724 86.7303 207.413L86.7269 207.409Z" fill="black"/>
<path d="M63.4819 202.942C63.4819 202.942 83.0956 218.075 90.3752 242.621" stroke="#535461" stroke-miterlimit="10"/>
<path d="M95.3141 221.769C95.3141 221.769 81.3868 219.392 90.8982 242.445C90.8982 242.445 100.576 238.758 101.33 229.586C101.48 227.802 100.969 226.024 99.8958 224.59C98.8222 223.157 97.2598 222.166 95.5044 221.806L95.3141 221.769Z" fill="#ACD980"/>
<path d="M95.518 221.745C95.518 221.745 98.171 234.495 90.9118 242.451" stroke="#535461" stroke-miterlimit="10"/>
<path d="M398.617 228.161C398.617 228.161 404.429 227.007 405.978 225.469C407.527 223.931 414.504 221.24 415.279 223.161C416.053 225.082 425.741 231.62 419.155 232.771C412.568 233.922 403.655 234.309 401.719 233.541C399.782 232.774 398.617 228.161 398.617 228.161Z" fill="#A8A8A8"/>
<path opacity="0.2" d="M419.165 232.061C412.578 233.216 403.665 233.599 401.729 232.832C400.254 232.245 399.229 229.437 398.821 228.124L398.627 228.164C398.627 228.164 399.789 232.778 401.729 233.548C403.668 234.319 412.578 233.932 419.165 232.778C421.067 232.438 421.611 231.664 421.407 230.673C421.234 231.315 420.571 231.814 419.165 232.061Z" fill="black"/>
<path d="M375.287 154.387C394.466 154.387 410.014 138.85 410.014 119.684C410.014 100.519 394.466 84.9821 375.287 84.9821C356.108 84.9821 340.561 100.519 340.561 119.684C340.561 138.85 356.108 154.387 375.287 154.387Z" fill="#ACD980"/>
<path d="M338.356 144.906C357.535 144.906 373.083 129.369 373.083 110.204C373.083 91.038 357.535 75.5012 338.356 75.5012C319.177 75.5012 303.629 91.038 303.629 110.204C303.629 129.369 319.177 144.906 338.356 144.906Z" fill="#ACD980"/>
<path d="M297.702 145.246C316.881 145.246 332.428 129.709 332.428 110.543C332.428 91.3774 316.881 75.8406 297.702 75.8406C278.523 75.8406 262.975 91.3774 262.975 110.543C262.975 129.709 278.523 145.246 297.702 145.246Z" fill="#ACD980"/>
<path d="M284.488 154.387C303.667 154.387 319.214 138.85 319.214 119.684C319.214 100.519 303.667 84.9821 284.488 84.9821C265.309 84.9821 249.761 100.519 249.761 119.684C249.761 138.85 265.309 154.387 284.488 154.387Z" fill="#ACD980"/>
<path d="M262.126 157.435C281.305 157.435 296.853 141.898 296.853 122.733C296.853 103.567 281.305 88.0303 262.126 88.0303C242.947 88.0303 227.4 103.567 227.4 122.733C227.4 141.898 242.947 157.435 262.126 157.435Z" fill="#ACD980"/>
<path d="M252.978 130.011C272.157 130.011 287.705 114.474 287.705 95.3086C287.705 76.143 272.157 60.6062 252.978 60.6062C233.799 60.6062 218.252 76.143 218.252 95.3086C218.252 114.474 233.799 130.011 252.978 130.011Z" fill="#ACD980"/>
<path d="M263.142 98.1839C282.321 98.1839 297.868 82.6471 297.868 63.4815C297.868 44.3159 282.321 28.7791 263.142 28.7791C243.963 28.7791 228.415 44.3159 228.415 63.4815C228.415 82.6471 243.963 98.1839 263.142 98.1839Z" fill="#ACD980"/>
<path d="M282.453 98.1839C301.632 98.1839 317.18 82.6471 317.18 63.4815C317.18 44.3159 301.632 28.7791 282.453 28.7791C263.274 28.7791 247.727 44.3159 247.727 63.4815C247.727 82.6471 263.274 98.1839 282.453 98.1839Z" fill="#ACD980"/>
<path d="M293.636 83.9642C312.815 83.9642 328.362 68.4274 328.362 49.2618C328.362 30.0961 312.815 14.5593 293.636 14.5593C274.457 14.5593 258.909 30.0961 258.909 49.2618C258.909 68.4274 274.457 83.9642 293.636 83.9642Z" fill="#ACD980"/>
<path d="M322.095 99.5383C341.274 99.5383 356.822 84.0014 356.822 64.8358C356.822 45.6702 341.274 30.1334 322.095 30.1334C302.916 30.1334 287.368 45.6702 287.368 64.8358C287.368 84.0014 302.916 99.5383 322.095 99.5383Z" fill="#ACD980"/>
<path d="M388.501 130.011C407.68 130.011 423.228 114.474 423.228 95.3086C423.228 76.143 407.68 60.6062 388.501 60.6062C369.322 60.6062 353.775 76.143 353.775 95.3086C353.775 114.474 369.322 130.011 388.501 130.011Z" fill="#ACD980"/>
<path d="M368.51 112.743C387.689 112.743 403.237 97.2063 403.237 78.0406C403.237 58.875 387.689 43.3382 368.51 43.3382C349.331 43.3382 333.784 58.875 333.784 78.0406C333.784 97.2063 349.331 112.743 368.51 112.743Z" fill="#ACD980"/>
<path d="M355.636 95.4751C374.815 95.4751 390.363 79.9383 390.363 60.7727C390.363 41.607 374.815 26.0702 355.636 26.0702C336.457 26.0702 320.91 41.607 320.91 60.7727C320.91 79.9383 336.457 95.4751 355.636 95.4751Z" fill="#ACD980"/>
<path d="M331.243 69.4049C350.422 69.4049 365.969 53.8681 365.969 34.7024C365.969 15.5368 350.422 0 331.243 0C312.064 0 296.516 15.5368 296.516 34.7024C296.516 53.8681 312.064 69.4049 331.243 69.4049Z" fill="#ACD980"/>
<path d="M376.643 98.1839C395.821 98.1839 411.369 82.6471 411.369 63.4815C411.369 44.3159 395.821 28.7791 376.643 28.7791C357.464 28.7791 341.916 44.3159 341.916 63.4815C341.916 82.6471 357.464 98.1839 376.643 98.1839Z" fill="#ACD980"/>
<path opacity="0.1" d="M409.861 68.916C409.861 68.916 377.519 53.5896 357.949 80.7528Z" fill="black"/>
<path opacity="0.1" d="M324.911 37.8662C324.911 37.8662 289.135 36.7867 282.11 69.5101Z" fill="black"/>
<path opacity="0.1" d="M280.439 108.866C280.439 108.866 248.097 93.5363 228.527 120.693Z" fill="black"/>
<path d="M153.973 222C153.973 222 155.838 224.437 153.11 228.11C150.382 231.783 148.133 234.899 149.034 237.194C149.034 237.194 153.147 230.357 156.507 230.262C159.866 230.167 157.655 226.111 153.973 222Z" fill="#ACD980"/>
<path d="M157.441 224.109C157.441 224.968 157.346 225.664 157.227 225.664C157.108 225.664 157.013 224.985 157.013 224.109C157.013 223.234 157.132 223.655 157.251 223.655C157.37 223.655 157.441 223.251 157.441 224.109Z" fill="#FFD037"/>
<path d="M158.63 225.131C157.876 225.542 157.217 225.79 157.162 225.685C157.108 225.579 157.672 225.162 158.426 224.751C159.18 224.34 158.881 224.639 158.939 224.751C158.997 224.863 159.384 224.734 158.63 225.131Z" fill="#FFD037"/>
<path d="M144.115 222C144.115 222 142.25 224.437 144.978 228.11C147.705 231.783 149.954 234.899 149.054 237.194C149.054 237.194 144.94 230.357 141.581 230.262C138.221 230.167 140.429 226.111 144.115 222Z" fill="#ACD980"/>
<path d="M140.647 224.109C140.647 224.968 140.742 225.664 140.861 225.664C140.98 225.664 141.075 224.985 141.075 224.109C141.075 223.234 140.956 223.655 140.837 223.655C140.718 223.655 140.647 223.251 140.647 224.109Z" fill="#FFD037"/>
<path d="M139.454 225.131C140.209 225.542 140.868 225.79 140.922 225.685C140.976 225.579 140.412 225.162 139.658 224.751C138.904 224.34 139.203 224.639 139.145 224.751C139.088 224.863 138.714 224.734 139.454 225.131Z" fill="#FFD037"/>
<path d="M141.241 236.885C141.241 236.885 146.459 236.726 148.035 235.606C149.611 234.485 156.062 233.151 156.449 234.944C156.836 236.736 164.289 243.868 158.399 243.915C152.509 243.963 144.713 242.999 143.143 242.042C141.574 241.084 141.241 236.885 141.241 236.885Z" fill="#A8A8A8"/>
<path d="M112.608 257.827C113.231 257.32 113.685 256.635 113.909 255.865C114.079 255.084 113.746 254.151 112.999 253.865C112.163 253.546 111.27 254.123 110.594 254.711C109.918 255.298 109.14 255.963 108.254 255.838C108.709 255.425 109.05 254.901 109.243 254.318C109.436 253.734 109.474 253.11 109.354 252.508C109.316 252.258 109.21 252.023 109.048 251.829C108.583 251.333 107.744 251.547 107.187 251.937C105.421 253.18 104.928 255.576 104.918 257.735C104.741 256.958 104.891 256.147 104.884 255.359C104.877 254.571 104.66 253.662 103.987 253.248C103.57 253.024 103.102 252.912 102.628 252.925C101.833 252.895 100.95 252.976 100.407 253.556C99.7274 254.276 99.9074 255.488 100.495 256.272C101.083 257.056 101.973 257.562 102.795 258.112C103.454 258.503 104.016 259.038 104.439 259.677C104.489 259.765 104.53 259.859 104.561 259.955H109.538C110.653 259.387 111.686 258.671 112.608 257.827Z" fill="#ACD980"/>
<path d="M405.727 248.579C406.349 248.072 406.803 247.388 407.028 246.617C407.198 245.836 406.865 244.903 406.117 244.618C405.282 244.299 404.388 244.876 403.712 245.463C403.036 246.05 402.259 246.716 401.372 246.59C401.828 246.177 402.169 245.654 402.361 245.07C402.554 244.486 402.593 243.863 402.473 243.26C402.434 243.01 402.329 242.775 402.167 242.581C401.701 242.085 400.862 242.299 400.305 242.69C398.539 243.932 398.046 246.329 398.036 248.488C397.86 247.71 398.009 246.899 398.002 246.111C397.995 245.324 397.778 244.414 397.105 244C396.688 243.776 396.22 243.665 395.747 243.677C394.952 243.647 394.069 243.728 393.525 244.309C392.846 245.028 393.026 246.24 393.613 247.024C394.201 247.809 395.091 248.314 395.913 248.864C396.572 249.256 397.134 249.791 397.557 250.429C397.607 250.518 397.648 250.611 397.68 250.708H402.656C403.771 250.14 404.804 249.424 405.727 248.579Z" fill="#ACD980"/>
<path d="M289.936 246.739C289.936 246.739 289.597 252.055 290.276 252.938C290.276 252.938 274.678 255.772 272.728 254.886C270.778 254 271.665 252.585 272.728 252.052C273.791 251.519 279.111 249.57 279.817 245.853C279.817 245.853 277.514 244.791 284.957 246.193C292.399 247.595 289.936 246.739 289.936 246.739Z" fill="#DC9BA3"/>
<path opacity="0.05" d="M289.936 246.739C289.936 246.739 289.597 252.055 290.276 252.938C290.276 252.938 274.678 255.772 272.728 254.886C270.778 254 271.665 252.585 272.728 252.052C273.791 251.519 279.111 249.57 279.817 245.853C279.817 245.853 277.514 244.791 284.957 246.193C292.399 247.595 289.936 246.739 289.936 246.739Z" fill="black"/>
<path d="M350.738 195.19C350.738 195.19 348.788 198.377 350.028 204.579C351.268 210.781 346.838 210.777 346.838 210.777H337.979L334.966 202.97L339.219 203.309C339.219 203.309 342.055 202.6 340.815 196.045L350.738 195.19Z" fill="#FFD2D9"/>
<path d="M324.15 187.752C325.509 192.067 327.207 197.321 328.114 200.122L328.76 202.101L334.609 196.079C334.609 196.079 334.351 195.481 333.967 194.646C333.111 192.793 331.62 189.768 330.886 189.524C330.886 189.524 339.039 188.991 341.522 190.94C344.005 192.888 343.295 185.624 343.295 185.624C343.295 185.624 338.509 185.284 336.736 184.208C334.962 183.132 325.39 182.083 325.39 182.083C325.39 182.083 322.2 181.55 324.15 187.752Z" fill="#FFD2D9"/>
<path d="M270.968 239.842L272.208 248.875L275.398 248.535C275.398 248.535 275.591 248.352 275.918 248.06C276.777 247.303 278.567 245.819 280.279 245.005C280.859 244.709 281.487 244.522 282.134 244.451L278.587 239.136C277.725 239.459 276.841 239.721 275.941 239.92C275.007 240.139 274.051 240.253 273.091 240.259C272.362 240.27 271.639 240.128 270.968 239.842Z" fill="#FFD2D9"/>
<path d="M279.831 246.21C281.427 247.625 288.693 244.614 289.937 249.221L291.078 244.852L294.594 231.41L295.076 229.56L298.004 229.434L331.61 228.001L333.512 227.92L334.531 227.876L333.199 227.217L324.337 222.828C324.337 222.828 321.144 222.604 316.741 222C310.067 221.087 300.61 219.284 295.27 216.097C286.407 210.781 283.041 228.674 283.041 228.674C283.041 228.674 281.682 233.212 280.663 237.686C280.195 239.616 279.838 241.571 279.593 243.542C279.44 244.91 279.488 245.901 279.831 246.21Z" fill="#E9E9EF"/>
<path opacity="0.05" d="M279.831 246.21C281.427 247.625 288.693 244.614 289.937 249.221L291.078 244.852L294.594 231.41L295.076 229.56L298.096 229.373L330.563 227.377L332.568 227.251L333.186 227.214L333.984 227.163L324.323 222.821C324.323 222.821 321.13 222.597 316.728 221.993C310.053 221.08 300.596 219.278 295.256 216.09C286.394 210.774 283.027 228.667 283.027 228.667C283.027 228.667 281.668 233.205 280.649 237.679C280.182 239.609 279.824 241.564 279.579 243.535C279.44 244.91 279.488 245.901 279.831 246.21Z" fill="black"/>
<path opacity="0.1" d="M275.945 239.906L279.046 243.542L280.283 244.991C280.862 244.695 281.49 244.508 282.137 244.438L278.591 239.122C277.728 239.445 276.844 239.707 275.945 239.906Z" fill="black"/>
<path d="M276.111 239.478L279.579 243.552L281.251 245.511V246.043C283.289 246.515 289.672 245.171 291.078 244.862L291.353 244.801C295.429 244.978 310.498 236.121 310.498 236.121C310.498 236.121 326.983 238.956 334.956 238.246C339.409 237.849 340.659 236.24 340.894 234.892C340.996 234.227 340.904 233.545 340.629 232.93L333.495 227.923L332.551 227.245L331.042 226.182C331.042 226.182 328.42 225.588 325.091 224.855C319.887 223.707 312.954 222.217 311.551 222.112C309.248 221.935 303.398 223.884 300.029 227.781C299.451 228.389 298.798 228.922 298.086 229.366L297.994 229.427C297.046 230.055 295.881 230.721 294.597 231.403C290.307 233.66 284.586 236.087 280.653 237.679C277.962 238.776 276.111 239.478 276.111 239.478Z" fill="#E9E9EF"/>
<path opacity="0.1" d="M270.968 239.842L272.208 248.875L275.398 248.535C275.398 248.535 275.591 248.352 275.918 248.06C275.211 248.06 274.046 247.873 273.801 246.41C273.801 246.41 275.031 242.116 273.091 240.266C272.362 240.275 271.638 240.13 270.968 239.842Z" fill="black"/>
<path d="M273.438 246.386C273.438 246.386 275.211 240.188 271.135 239.478L264.399 242.136L256.586 242.669C256.586 242.669 254.548 245.993 257.812 249.72C258.71 250.73 259.803 251.549 261.025 252.126C262.247 252.704 263.574 253.028 264.925 253.08L273.438 253.471L276.111 247.989C276.111 247.989 273.805 248.511 273.438 246.386Z" fill="#DC9BA3"/>
<path opacity="0.1" d="M316.731 222C317.625 222.261 321.321 223.358 325.105 224.862C326.975 225.582 328.798 226.422 330.56 227.377C330.927 227.584 331.277 227.791 331.606 227.998C332.469 228.505 333.242 229.152 333.892 229.913C336.08 232.74 339.294 234.264 340.894 234.886C340.996 234.22 340.904 233.538 340.629 232.924L333.495 227.917L334.514 227.872L333.183 227.214L333.981 227.163L324.32 222.821C324.32 222.821 321.134 222.604 316.731 222Z" fill="black"/>
<path opacity="0.1" d="M328.128 200.125L328.773 202.104L334.623 196.082C334.623 196.082 334.365 195.485 333.981 194.65C333.223 196.208 329.694 198.944 328.128 200.125Z" fill="black"/>
<path d="M349.219 203.062C349.429 202.462 349.582 201.843 349.678 201.215L357.297 203.859C357.297 203.859 362.525 207.845 361.995 216.524C361.995 216.524 355.541 214.148 352.688 216.966L352.63 217.465C352.03 222.418 349.836 227.042 346.379 230.642C344.97 232.122 343.642 233.789 342.938 235.395C342.938 235.395 337.976 233.979 334.962 230.079C331.949 226.178 317.598 222.119 317.598 222.119C317.598 222.119 325.22 222.295 326.283 219.637C327.347 216.979 330.893 211.31 329.653 206.884C328.413 202.457 327.703 201.038 327.703 201.038C327.703 201.038 334.973 195.903 334.439 194.307L339.049 199.623L341.175 200.332C341.007 200.744 340.922 201.185 340.924 201.629C340.802 206.439 347.602 207.593 349.219 203.062Z" fill="#CEDAD5"/>
<path opacity="0.1" d="M341.08 198.404C341.027 197.743 340.937 197.084 340.812 196.432L350.738 195.546C350.738 195.546 350.058 196.14 349.753 198.353C348.588 199.032 347.229 199.976 345.775 199.976C344.08 199.978 342.432 199.426 341.08 198.404Z" fill="black"/>
<path d="M345.687 199.708C349.994 199.708 353.486 196.218 353.486 191.914C353.486 187.609 349.994 184.12 345.687 184.12C341.379 184.12 337.887 187.609 337.887 191.914C337.887 196.218 341.379 199.708 345.687 199.708Z" fill="#FFD2D9"/>
<path d="M351.448 193.95H350.384V190.94L349.321 187.752C349.321 187.752 344.002 185.271 341.508 185.804L339.572 187.565C339.572 187.565 339.039 183.315 342.232 181.72C345.425 180.125 351.094 180.834 352.514 182.059C353.934 183.285 356.251 185.427 354.464 191.272L353.944 192.711C353.944 192.711 351.801 192.002 351.448 193.95Z" fill="#844F6E"/>
<g opacity="0.05">
<path d="M337.67 198.041L337.089 197.848L334.412 194.762C334.465 194.616 334.471 194.457 334.429 194.307L337.67 198.041Z" fill="black"/>
<path d="M341.4 203.758C340.642 203.435 340.002 202.887 339.566 202.189C339.131 201.491 338.92 200.676 338.964 199.854C338.964 199.749 338.964 199.65 338.964 199.555L339.018 199.62L341.145 200.329C340.977 200.741 340.892 201.181 340.894 201.626C340.872 202.368 341.047 203.104 341.4 203.758Z" fill="black"/>
<path d="M320.723 221.973C325.166 223.517 331.182 225.951 333.013 228.317L333.149 228.487C328.281 225.15 317.591 222.115 317.591 222.115C318.637 222.127 319.682 222.079 320.723 221.973Z" fill="black"/>
<path d="M340.989 233.633C341.692 232.034 343.027 230.364 344.43 228.881C347.887 225.281 350.08 220.656 350.68 215.703L350.738 215.204C353.574 212.369 360.045 214.763 360.045 214.763C360.385 209.257 358.401 205.641 356.91 203.734L357.301 203.87C357.301 203.87 362.528 207.855 361.999 216.535C361.999 216.535 355.544 214.158 352.691 216.976L352.633 217.475C352.033 222.428 349.84 227.053 346.383 230.652C344.973 232.132 343.645 233.799 342.942 235.405C342.942 235.405 338.621 234.169 335.598 230.843C337.227 232.065 339.049 233.008 340.989 233.633Z" fill="black"/>
</g>
<path d="M342.938 212.906C342.938 212.906 351.431 225.126 355.877 228.67C360.324 232.214 361.55 227.075 361.55 227.075V215.74L353.737 214.854L353.652 215.93L353.557 217.159L346.288 209.352C346.288 209.352 339.018 202.797 337.602 206.694C336.185 210.591 342.938 212.906 342.938 212.906Z" fill="#FFD2D9"/>
<path opacity="0.1" d="M353.669 215.93C354.732 216.549 355.86 217.05 357.032 217.424C358.707 217.94 360.626 217.397 361.553 217.064V215.74L353.741 214.854L353.669 215.93Z" fill="black"/>
<path d="M361.642 214.59L362.097 216.487C362.097 216.487 359.325 217.777 357.022 217.071C355.469 216.545 353.986 215.831 352.606 214.946C352.266 214.769 354.023 212.821 354.023 212.821L361.642 214.59Z" fill="#CEDAD5"/>
<path opacity="0.1" d="M310.586 236.199C309.404 235.292 308.089 234.574 306.687 234.071C305.349 233.615 304.089 232.958 302.95 232.122" fill="black"/>
<path opacity="0.2" d="M256.61 242.666L256.898 242.646C256.477 243.715 255.879 246.329 258.366 249.183C259.261 250.19 260.35 251.007 261.568 251.584C262.786 252.16 264.108 252.486 265.455 252.541L273.71 252.928L273.445 253.471L264.925 253.08C263.578 253.026 262.256 252.7 261.038 252.123C259.82 251.546 258.731 250.73 257.836 249.723C254.571 245.989 256.61 242.666 256.61 242.666Z" fill="white"/>
<path opacity="0.05" d="M286.71 250.26C286.685 250.366 286.657 250.472 286.625 250.576C286.451 250.477 286.203 250.287 286.71 250.26Z" fill="#00FF00"/>
<path opacity="0.2" d="M272.758 254.357C274.576 255.182 288.238 252.778 290.083 252.446C290.12 252.622 290.192 252.789 290.293 252.938C290.293 252.938 274.695 255.772 272.745 254.886C271.726 254.431 271.491 253.834 271.627 253.291C271.739 253.671 272.059 254.048 272.758 254.357Z" fill="white"/>
<path opacity="0.1" d="M340.73 188.19C338.813 187.031 337.256 185.362 336.233 183.37C336.089 183.15 336.03 182.886 336.067 182.626C336.192 182.144 336.821 182.059 337.276 181.852C338.122 181.465 338.478 180.495 339.032 179.741C339.507 179.121 340.145 178.644 340.875 178.364C341.605 178.085 342.398 178.012 343.166 178.156C343.975 178.319 344.722 178.719 345.544 178.835C347.303 179.093 349.219 178.027 350.799 178.835C351.519 179.205 352.008 179.9 352.436 180.586C353.513 182.307 354.862 184.137 353.883 186.146C353.323 187.301 352.426 188.258 351.166 188.594C349.906 188.93 348.448 188.648 347.164 188.512C346.111 188.397 345.004 188.173 343.944 188.268C342.694 188.397 341.916 188.903 340.73 188.19Z" fill="black"/>
<path d="M340.73 187.834C338.813 186.675 337.256 185.006 336.233 183.013C336.089 182.794 336.03 182.53 336.067 182.27C336.192 181.788 336.821 181.703 337.276 181.496C338.122 181.109 338.478 180.138 339.032 179.384C339.507 178.764 340.145 178.288 340.875 178.008C341.605 177.728 342.398 177.656 343.166 177.799C343.975 177.962 344.722 178.363 345.544 178.478C347.303 178.736 349.219 177.67 350.799 178.478C351.519 178.848 352.008 179.544 352.436 180.23C353.513 181.951 354.862 183.78 353.883 185.79C353.323 186.944 352.426 187.901 351.166 188.237C349.906 188.574 348.448 188.292 347.164 188.156C346.111 188.041 345.004 187.817 343.944 187.912C342.694 188.041 341.916 188.55 340.73 187.834Z" fill="#844F6E"/>
<path d="M212.677 240.215H233.004V225.666H212.677V240.215Z" fill="#5F5D7E"/>
<path d="M227.96 222.496C227.96 222.496 243.097 219.325 243.528 225.666C243.959 232.007 234.591 244.676 234.591 244.676L226.098 242.948L228.548 233.151C228.548 233.151 218.89 230.989 218.313 230.846C217.735 230.704 227.96 222.496 227.96 222.496Z" fill="#5F5D7E"/>
<path opacity="0.1" d="M227.96 222.496C227.96 222.496 243.097 219.325 243.528 225.666C243.959 232.007 234.591 244.676 234.591 244.676L226.098 242.948L228.548 233.151C228.548 233.151 218.89 230.989 218.313 230.846C217.735 230.704 227.96 222.496 227.96 222.496Z" fill="black"/>
<path d="M235.892 246.41C235.892 246.41 234.451 249.146 234.873 250.3C235.294 251.454 224.638 248.715 224.638 248.715C224.638 248.715 225.504 245.402 225.358 244.981C225.212 244.56 235.892 246.41 235.892 246.41Z" fill="#5F5D7E"/>
<path d="M226.52 227.682L227.58 228.64L228.259 229.257C228.259 229.257 231.72 234.875 236.187 231.42C240.654 227.964 232.719 225.377 231.133 225.245C230.815 225.199 230.512 225.076 230.252 224.887C229.992 224.699 229.781 224.45 229.638 224.162C229.395 223.739 229.219 223.281 229.115 222.804L226.52 227.682Z" fill="#A0616A"/>
<path opacity="0.05" d="M227 227.878L228.06 228.835L228.739 229.453C228.739 229.453 232.201 235.071 236.668 231.615C241.135 228.16 233.199 225.573 231.613 225.441C231.295 225.394 230.993 225.272 230.732 225.083C230.472 224.894 230.261 224.646 230.118 224.358C229.875 223.935 229.699 223.477 229.595 223L227 227.878Z" fill="black"/>
<path opacity="0.1" d="M235.892 246.41C235.892 246.41 234.451 249.146 234.873 250.3C235.294 251.454 224.638 248.715 224.638 248.715C224.638 248.715 225.504 245.402 225.358 244.981C225.212 244.56 235.892 246.41 235.892 246.41Z" fill="black"/>
<path opacity="0.1" d="M226.52 227.682L227.58 228.64C227.58 226.793 228.806 225.096 229.645 224.142C229.402 223.719 229.225 223.261 229.122 222.784L226.52 227.682Z" fill="black"/>
<path d="M220.178 213.133L230.124 223.073C230.124 223.073 226.662 226.097 227.386 229.268L220.178 221.199V213.133Z" fill="#C4C8E2"/>
<path opacity="0.1" d="M220.249 213.133V221.202L221.404 222.495L224.831 226.331L227.457 229.271C226.737 226.1 230.195 223.076 230.195 223.076L220.249 213.133Z" fill="black"/>
<path d="M220.178 198.869C220.178 198.869 220.178 201.894 217.582 201.032C214.987 200.169 217.005 235.174 217.005 235.174C217.005 235.174 224.502 229.556 223.058 225.523C221.615 221.491 221.329 218.456 221.465 214.43C221.601 210.404 220.178 198.869 220.178 198.869Z" fill="#E3DC9D"/>
<path d="M220.032 190.804C220.032 190.804 217.868 196.71 220.032 201.178C222.195 205.645 207.198 198.727 207.198 198.727C207.198 198.727 210.513 197.141 209.362 189.507L220.032 190.804Z" fill="#A0616A"/>
<path opacity="0.1" d="M221.329 217.743C221.241 219.326 221.241 220.913 221.329 222.495L224.757 226.331C224.255 225.26 223.688 224.22 223.058 223.219C222.525 222.394 222.406 219.104 222.379 215.35L221.122 214.094C221.255 216.121 221.329 217.743 221.329 217.743Z" fill="black"/>
<path d="M219.087 198.089C218.928 197.332 220.178 198.472 220.579 199.134L220.599 199.171C221.176 200.19 220.888 199.891 221.754 202.196C222.62 204.501 221.465 221.205 222.773 223.242C223.656 224.669 224.427 226.163 225.079 227.709L222.773 226.844C222.773 226.844 221.907 224.25 221.333 223.673C220.759 223.096 221.044 217.767 221.044 217.767C221.044 217.767 220.613 208.547 220.178 206.531C219.835 204.908 219.427 199.681 219.087 198.089Z" fill="#C4C8E2"/>
<path opacity="0.1" d="M219.087 198.089C218.928 197.332 220.178 198.472 220.579 199.134L220.599 199.171C221.176 200.19 220.888 199.891 221.754 202.196C222.62 204.501 221.465 221.205 222.773 223.242C223.656 224.669 224.427 226.163 225.079 227.709L222.773 226.844C222.773 226.844 221.907 224.25 221.333 223.673C220.759 223.096 221.044 217.767 221.044 217.767C221.044 217.767 220.613 208.547 220.178 206.531C219.835 204.908 219.427 199.681 219.087 198.089Z" fill="black"/>
<path d="M215.707 234.02C215.707 234.02 238.484 233.154 241.368 239.207C244.251 245.259 237.332 249.007 237.332 249.007C237.332 249.007 227.675 245.982 225.511 246.413C223.347 246.845 215.707 245.259 215.707 245.259V234.02Z" fill="#5F5D7E"/>
<path d="M228.395 230.276C228.395 230.276 233.585 227.394 236.469 229.257C239.353 231.121 239.064 236.172 235.029 236.315C230.993 236.457 228.83 234.01 228.83 234.01L228.395 230.276Z" fill="#A0616A"/>
<path d="M212.103 196.133C212.103 196.133 207.49 192.963 200.713 204.62C193.937 216.277 195.669 236.311 195.669 236.311C195.669 236.311 200.713 236.6 200.571 241.352C200.428 246.104 220.178 247.123 220.178 247.123C220.178 247.123 219.889 199.871 217.871 198.581C215.853 197.291 212.103 196.133 212.103 196.133Z" fill="#C4C8E2"/>
<path opacity="0.1" d="M212.083 204.728C212.896 205.314 213.558 206.085 214.014 206.978C214.471 207.871 214.707 208.859 214.705 209.861C214.729 214.175 214.834 223.473 215.272 225.231C215.85 227.536 224.498 230.561 228.969 230.418C228.969 230.418 231.133 234.451 228.537 235.317C225.942 236.182 210.085 235.317 210.085 235.317C210.085 235.317 203.886 228.259 203.743 222.078C203.601 215.896 202.724 208.968 203.743 207.671C204.576 206.575 208.057 201.891 212.083 204.728Z" fill="black"/>
<path d="M212.372 204.151C213.189 204.736 213.855 205.508 214.314 206.401C214.773 207.295 215.012 208.286 215.011 209.291C215.035 213.605 215.14 222.903 215.578 224.661C216.156 226.966 224.804 229.991 229.275 229.848C229.275 229.848 231.438 233.881 228.843 234.746C226.248 235.612 210.391 234.746 210.391 234.746C210.391 234.746 204.192 227.689 204.049 221.508C203.906 215.326 203.03 208.398 204.049 207.101C204.864 206.011 208.346 201.313 212.372 204.151Z" fill="#C4C8E2"/>
<path d="M242.169 249.18C244.238 250.198 246.636 252.296 242.091 255.484C242.091 255.484 229.118 256.923 224.937 254.33C220.755 251.736 224.937 247.557 224.937 247.557C224.937 247.557 234.506 250.1 239.098 248.858C240.127 248.587 241.219 248.702 242.169 249.18Z" fill="#4C4C56"/>
<path opacity="0.1" d="M242.169 249.472C244.238 250.456 246.636 252.452 242.091 255.504C242.091 255.504 229.118 256.882 224.937 254.401C220.755 251.919 224.937 247.924 224.937 247.924C224.937 247.924 234.506 250.355 239.098 249.17C240.126 248.909 241.212 249.016 242.169 249.472Z" fill="black"/>
<path opacity="0.1" d="M212.752 214.932C212.752 214.932 213.472 224.009 218.231 226.026Z" fill="black"/>
<path opacity="0.1" d="M219.889 191.812C219.468 193.061 219.182 194.352 219.036 195.661C218.126 195.967 216.794 195.2 215.779 195.2C213.136 195.2 212.382 192.246 210.734 190.447C210.734 189.646 209.375 191.517 209.219 190.519L219.889 191.812Z" fill="black"/>
<path d="M207.198 186.048C207.197 186.801 207.289 187.551 207.473 188.282L207.504 188.397C208.099 190.636 209.524 192.565 211.49 193.792C213.456 195.019 215.816 195.453 218.09 195.005C220.364 194.557 222.383 193.262 223.736 191.381C225.089 189.5 225.676 187.175 225.377 184.878C225.077 182.581 223.914 180.484 222.124 179.012C220.334 177.54 218.05 176.805 215.737 176.954C213.424 177.103 211.254 178.127 209.668 179.816C208.082 181.506 207.199 183.735 207.198 186.051V186.048Z" fill="#A0616A"/>
<path opacity="0.1" d="M200.717 204.776C201.658 203.119 202.737 201.543 203.94 200.064C202.972 201.336 202.088 202.669 201.294 204.056C194.517 215.727 196.25 235.748 196.25 235.748C196.25 235.748 201.294 236.036 201.151 240.789C201.022 245.056 216.917 246.305 220.174 246.515C220.174 247.004 220.174 247.269 220.174 247.269C220.174 247.269 200.425 246.25 200.567 241.498C200.71 236.746 195.665 236.457 195.665 236.457C195.665 236.457 193.95 216.446 200.717 204.776Z" fill="black"/>
<path d="M204.026 179.383C203.822 180.3 203.6 181.256 202.995 181.976C202.391 182.695 201.279 183.083 200.486 182.578C199.516 181.961 199.594 180.546 199.787 179.413L200.399 175.822C200.516 175.136 200.637 174.439 200.953 173.82C201.27 173.202 201.819 172.662 202.502 172.534C203.224 172.398 203.979 172.753 204.461 173.309C204.943 173.864 205.185 174.591 205.304 175.317C205.618 177.242 205.102 179.288 203.912 180.833L204.026 179.383Z" fill="#2F2E41"/>
<path d="M201.138 174.232C199.831 172.637 197.104 172.876 195.652 174.34C194.199 175.804 193.839 178.062 194.096 180.109C194.353 182.154 195.431 190.552 195.771 192.163C196.196 194.18 193.027 195.652 191 195.272C191.16 196.685 192.114 197.945 193.361 198.63C194.608 199.313 196.108 199.453 197.503 199.183C198.067 199.073 198.621 198.896 199.145 198.653C198.908 198.043 198.761 197.398 198.719 196.743C198.99 197.322 199.367 197.848 199.824 198.294C200.566 197.845 201.22 197.26 201.721 196.553C202.703 195.168 203.049 193.318 202.502 191.71C201.865 189.831 200.186 188.535 198.996 186.948C197.805 185.362 197.196 182.883 198.657 181.541C199.77 180.518 199.703 180.744 201.195 180.982L201.138 174.232Z" fill="#2F2E41"/>
<path d="M220.788 180.935C220.788 185.87 216.788 189.871 211.853 189.871C206.918 189.871 202.23 184.152 202.23 179.217C202.23 174.282 206.918 172 211.853 172C216.788 172 220.788 176.001 220.788 180.935Z" fill="#2F2E41"/>
<path d="M225.256 181.966C222.732 182.655 220.184 183.378 219.2 181.966C219.008 181.032 218.647 180.135 218.132 179.334C218.035 180.234 217.822 181.121 217.503 181.966C216.394 182.166 214.853 182.166 214.853 182.166C214.492 182.788 212.841 183.817 212.783 184.563C212.656 184.48 212.522 184.415 212.384 184.353C212.212 184.281 212.01 184.219 211.841 184.305C211.714 184.37 211.642 184.511 211.618 184.652C211.594 184.793 211.614 184.937 211.639 185.082C211.711 185.566 211.79 186.072 212.068 186.477C212.264 186.766 212.594 186.993 212.931 187.03C213.288 189.041 214.078 191.759 214.078 191.759C205.487 192.103 202.918 185.76 202.918 180.248L203.949 178.186H207.385V173.718H217.008C221.561 173.718 225.256 177.413 225.256 181.966Z" fill="#2F2E41"/>
</svg>
